<svg id="SvgjsSvg1022" width="288" height="288" xmlns="http://www.w3.org/2000/svg" version="1.1" xmlns:xlink="http://www.w3.org/1999/xlink" xmlns:svgjs="http://svgjs.com/svgjs"><defs id="SvgjsDefs1023"></defs><g id="SvgjsG1024"><svg xmlns="http://www.w3.org/2000/svg" width="288" height="288" viewBox="0 0 4096 4096"><defs><clipPath id="a" clipPathUnits="userSpaceOnUse"><path d="M 0,0 H 595.276 V 807.874 H 0 Z" fill="#000000" class="color000 svgShape"></path></clipPath></defs><g transform="matrix(1.33333 0 0 -1.33333 0 4096)" fill="#000000" class="color000 svgShape"><path fill="#6c6c6c" d="m 0,0 h -6.08 l 2.391,-3.431 h 3.082 l -2.591,-14.756 h 5.399 l 2.596,14.756 h 6.734 L 0.899,5.122 Z" transform="matrix(13.0004 0 0 13.0004 1930.968 1602.456)" class="color0052d9 svgShape"></path><path fill="#6c6c6c" d="m 0,0 h -24.53 l -0.671,-3.864 h 9.525 l -3.991,-22.698 h 5.4 l 3.991,22.698 h 9.606 z" transform="matrix(13.0004 0 0 13.0004 558.994 1711.348)" class="color0052d9 svgShape"></path><g fill="#6c6c6c" clip-path="url(#a)" transform="matrix(13.0004 0 0 13.0004 -433.8 -8054.305)" class="color0052d9 svgShape"><path d="m 0,0 c -6.864,0 -11.257,-4.319 -12.129,-9.337 -0.968,-5.574 2.457,-9.652 9.383,-9.652 3.096,0 5.991,0.582 8.343,1.889 l 0.73,4.157 c -2.298,-1.647 -5.222,-2.567 -7.7,-2.567 -3.453,0 -6.198,1.438 -5.766,4.736 H 7.129 c 0.172,0.39 0.378,1.077 0.527,1.932 C 8.348,-4.86 6.936,0 0,0 m 2.798,-7.568 h -9.39 c 0.564,1.86 2.388,4.431 5.709,4.431 3.614,0 3.997,-2.748 3.681,-4.431" transform="translate(80.36 743.213)" fill="#000000" class="color000 svgShape"></path><path d="M 0,0 C -3.37,0 -5.894,-1.396 -7.084,-2.809 H -7.21 L -11.963,0 c -0.175,-1.575 -0.409,-3.716 -0.774,-5.816 l -2.218,-12.778 h 5.398 l 1.877,10.7 c 0.091,0.525 0.269,1.082 0.502,1.46 0.806,1.405 2.498,2.698 4.644,2.698 2.947,0 3.749,-1.989 3.297,-4.596 l -1.806,-10.262 h 5.4 L 6.258,-7.793 C 7.257,-2.042 3.72,0 0,0" transform="translate(104.206 743.212)" fill="#000000" class="color000 svgShape"></path><path d="M 0,0 C -3.372,0 -5.894,-1.396 -7.084,-2.809 H -7.21 L -11.963,0 c -0.175,-1.575 -0.409,-3.716 -0.775,-5.816 l -2.218,-12.778 h 5.397 l 1.879,10.7 c 0.09,0.525 0.269,1.082 0.499,1.46 0.809,1.405 2.5,2.698 4.645,2.698 2.95,0 3.75,-1.989 3.298,-4.596 l -1.804,-10.262 h 5.398 l 1.9,10.801 C 7.255,-2.042 3.72,0 0,0" transform="translate(168.98 743.212)" fill="#000000" class="color000 svgShape"></path><path d="m 0,0 c -6.862,0 -11.255,-4.319 -12.128,-9.337 -0.967,-5.574 2.457,-9.652 9.383,-9.652 3.095,0 5.992,0.582 8.344,1.889 l 0.73,4.157 c -2.298,-1.647 -5.222,-2.567 -7.701,-2.567 -3.451,0 -6.194,1.438 -5.765,4.736 h 14.27 c 0.17,0.39 0.377,1.077 0.527,1.932 C 8.349,-4.86 6.936,0 0,0 m 2.8,-7.568 h -9.391 c 0.565,1.86 2.389,4.431 5.709,4.431 3.615,0 3.998,-2.748 3.682,-4.431" transform="translate(145.132 743.213)" fill="#000000" class="color000 svgShape"></path><path d="m 0,0 c -0.979,-5.645 2.974,-9.729 9.663,-9.729 2.659,0 5.836,0.763 7.038,1.21 l 0.874,4.861 c -1.877,-2.017 -4.42,-2.436 -6.223,-2.436 -3.676,0 -6.459,2.139 -5.811,5.867 0.563,3.334 3.72,5.897 7.835,5.897 1.677,0 3.95,-0.562 5.384,-2.449 l 0.837,4.944 C 18.436,8.611 16.577,9.247 13.826,9.247 6.32,9.247 0.946,5.444 0,0" transform="translate(112.73 733.956)" fill="#000000" class="color000 svgShape"></path><path d="m 0,0 c -1.473,-8.089 -2.796,-16.087 -4.299,-24.145 h -3.037 c 0.602,3.038 1.293,6.254 1.804,9.232 h -2.164 c -0.662,-3.127 -1.354,-6.255 -2.015,-9.232 h -3.037 c 2.555,8.149 3.818,16.539 5.261,25.798 h 5.683 C -0.33,1.653 0.27,1.413 0,0 m -4.179,-7.728 h -2.075 c -0.301,-1.563 -0.631,-3.187 -0.962,-4.81 h 2.165 z m 0.631,6.886 h -1.503 c -0.241,-1.443 -0.481,-2.946 -0.781,-4.51 h 2.044 l 0.752,3.939 c 0.09,0.451 -0.09,0.571 -0.512,0.571 M 8.449,-20.597 H -1.744 l -0.42,2.316 H 8.961 v -0.03 z m 3.367,8.96 -0.69,-3.126 h 1.473 c 0.993,0 1.714,-0.211 1.533,-1.443 -0.331,-2.225 -0.932,-5.322 -1.413,-7.939 H 4.721 l -0.66,2.375 h 5.892 c 0.271,1.264 0.602,2.797 0.781,4.06 0.061,0.421 -0.12,0.572 -0.541,0.572 H 0.211 l 0.901,4.841 c -0.721,-0.331 -1.803,-0.692 -2.856,-0.902 l 0.633,2.916 c 1.864,0.45 3.756,1.354 4.929,2.645 h -4.449 l 0.511,2.286 h 5.503 c 0.3,0.42 0.542,0.962 0.662,1.353 H 0.091 l 0.451,2.375 H 2.677 L 1.895,1.895 h 3.037 l 0.721,-3.519 h 1.052 c 0.331,1.173 0.572,2.736 0.602,4.03 h 3.096 C 10.344,1.112 10.164,-0.42 9.863,-1.624 h 1.232 c 0.482,1.082 0.962,2.375 1.353,3.519 h 3.097 c -0.42,-1.083 -0.962,-2.406 -1.473,-3.519 h 2.165 L 15.666,-3.999 H 9.201 C 9.081,-4.39 8.84,-4.961 8.631,-5.352 h 7.937 l -0.542,-2.286 h -4.63 c 0.992,-1.472 3.369,-2.586 5.202,-2.975 l -1.023,-2.586 c -1.262,0.269 -2.645,0.872 -3.759,1.562 M 8.69,-12.057 H 2.105 l 1.985,-0.902 -0.361,-1.804 h 4.36 z m 1.112,2.255 C 9.291,-9.23 8.75,-8.298 8.42,-7.638 H 7.307 C 6.705,-8.389 5.803,-9.23 5.022,-9.802 Z" transform="translate(208.174 748.74)" fill="#000000" class="color000 svgShape"></path><path d="M 0,0 H 6.315 C 5.683,-4.21 4.961,-8.479 4.149,-12.75 c 1.204,0.902 2.466,1.866 3.609,2.857 l -0.662,-3.878 c -2.135,-1.804 -5.081,-3.909 -7.787,-5.442 1.173,5.442 2.255,11.215 3.037,16.536 H -0.48 Z M 7.427,1.413 C 6.976,3.518 6.405,5.713 5.923,7.757 H 2.526 C 2.977,5.684 3.459,3.457 3.85,1.413 Z M 22.852,6.945 H 8.811 l 0.6,-2.675 h 10.494 c 0.692,0 1.023,-0.09 0.872,-0.873 -0.391,-2.165 -0.811,-4.359 -1.233,-6.494 h -4.57 l 0.782,4.57 -3.187,1.864 -1.172,-6.434 H 7.998 L 7.547,-5.773 h 3.339 c -0.693,-4.331 -1.535,-8.749 -2.407,-13.08 h 3.638 c 0.842,4.36 1.684,8.72 2.406,13.08 h 4.541 c -0.752,-4.36 -1.595,-8.84 -2.437,-13.08 h 6.435 l 1.112,2.707 h -3.427 c 1.354,6.884 2.767,14.072 3.969,21.016 0.27,1.504 -0.029,2.075 -1.864,2.075" transform="translate(227.07 743.418)" fill="#000000" class="color000 svgShape"></path></g></g></svg></g></svg>